PathFileType	4	(X/Y/Z)	C:\Users\WrightLab\Desktop\Jo\P2_Trial27.trc
DataRate	CameraRate	NumFrames	NumMarkers	Units	OrigDataRate	OrigDataStartFrame	OrigNumFrames
100.00	100.00	       13	19	mm	100.00	188	       501
Frame#	Time	Headset_Front			Headset_Back			Headset_Left			Headset_Right			Left_Shoulder			Right_Shoulder			Sternum			C7			Left Elbow			Right Elbow			Left Wrist			Right Wrist			Left ASIS			Right ASIS			S2			Left Knee			Right Knee			Left Ankle			Right Ankle			
		X1	Y1	Z1	X2	Y2	Z2	X3	Y3	Z3	X4	Y4	Z4	X5	Y5	Z5	X6	Y6	Z6	X7	Y7	Z7	X8	Y8	Z8	X9	Y9	Z9	X10	Y10	Z10	X11	Y11	Z11	X12	Y12	Z12	X13	Y13	Z13	X14	Y14	Z14	X15	Y15	Z15	X16	Y16	Z16	X17	Y17	Z17	X18	Y18	Z18	X19	Y19	Z19	

188	1.870	-714.58917	1494.79932	-528.54260	-618.92578	1615.04126	-696.80115	-504.53058	1510.88354	-617.53925				-488.65750	1374.05298	-683.17035	-818.83911	1376.05554	-689.59955	-661.16766	1258.81409	-621.45319	-664.75952	1370.91174	-800.88983	-377.39371	1027.29797	-740.24213	-913.94318	1050.24780	-763.34778	-349.15378	783.99310	-762.31805	-940.17212	794.98303	-734.79742	-620.14691	938.79449	-586.89563	-753.13776	938.06726	-626.37061	-611.03900	894.80585	-868.10913	-590.97760	420.41397	-532.62567	-817.41492	494.56064	-960.96533	-633.41638	62.69758	-439.46881				
189	1.880	-715.46960	1497.34692	-515.78210	-616.52258	1615.94604	-681.61047	-502.73038	1510.16699	-606.36530				-487.47037	1374.65479	-671.52075	-817.29340	1379.08337	-675.84454	-660.97723	1259.13574	-609.16492	-663.75079	1371.89026	-787.63593	-376.34790	1027.27087	-725.80286	-913.46149	1051.87354	-750.30701	-348.65210	784.22687	-752.00812	-942.06573	797.10638	-724.87128	-620.58838	939.72467	-572.39209	-752.80176	940.27570	-612.47906	-612.88953	895.03503	-853.37140	-591.70972	421.36578	-521.73242	-817.30908	497.07800	-945.77985	-632.43250	63.47058	-434.04880				
190	1.890	-712.81506	1496.94885	-500.94263	-614.04449	1617.38123	-666.56647	-500.65051	1509.75671	-593.48132				-485.89978	1374.88135	-660.81519	-815.71429	1381.18689	-661.92450	-659.35175	1260.42590	-597.17645	-662.86237	1373.19482	-774.52087	-375.15375	1027.70618	-712.76837	-913.59680	1054.58972	-736.90820	-347.38321	784.34076	-735.14752	-943.84521	799.22925	-714.87677	-619.42468	940.45227	-558.65735	-752.21265	941.69550	-596.49194	-614.98950	895.64539	-839.72150	-593.68738	423.71719	-508.33582	-817.11554	500.05930	-929.64441	-633.54572	64.97159	-427.50266				
191	1.900	-707.55658	1495.24585	-485.84579	-611.64526	1618.92883	-650.87726	-498.50787	1509.67358	-579.04480				-484.66440	1375.94946	-647.90051	-814.45032	1383.48621	-648.58368	-658.05157	1262.81885	-582.86652	-662.04333	1374.80713	-761.67261	-373.88275	1027.69177	-697.12598	-913.16315	1057.28308	-723.81183	-346.18784	784.07996	-716.48322	-945.65125	803.08655	-704.40942	-619.26959	942.63873	-545.24561	-751.42566	943.55145	-582.09338	-616.86877	896.14935	-825.24945	-594.30115	425.07108	-494.61752	-817.70813	503.00562	-912.71356	-632.68121	66.52086	-421.65213				
192	1.910	-705.38696	1494.80200	-472.76501	-609.32538	1620.87122	-636.46802	-496.78687	1510.05969	-565.54993				-483.65881	1377.13013	-636.56317	-812.82507	1385.83838	-635.21832	-657.29034	1264.63684	-568.56677	-661.45001	1376.24951	-748.58417	-373.02805	1028.61389	-682.48932	-912.66315	1059.94763	-710.11096	-344.24399	785.26874	-699.25708	-947.38568	806.05011	-693.53302	-617.41693	945.16162	-531.66846	-750.70685	945.85632	-568.17181	-619.03278	896.94446	-812.95886	-594.63904	426.83856	-481.68909	-817.88715	505.31613	-894.96271	-634.19037	66.26231	-414.49985				
193	1.920	-703.21179	1494.34644	-459.52701	-607.06598	1622.74597	-621.29895	-494.58551	1510.96582	-554.14661				-482.30545	1378.18054	-625.36877	-811.79126	1388.46631	-621.67938	-655.34772	1266.31799	-555.85651	-660.66882	1378.43335	-736.93585	-372.82858	1029.46277	-668.37854	-913.04645	1063.34131	-696.87531	-343.87741	786.60107	-681.34357	-949.41968	809.58954	-681.83246	-616.74048	947.22974	-518.29572	-750.37115	948.28485	-554.56360	-620.83362	897.63464	-799.30237	-595.10736	427.50717	-468.12244	-818.74274	508.19608	-877.17059	-635.03119	65.95760	-407.73712				
194	1.930	-701.90198	1494.12061	-447.40637	-604.85907	1625.10608	-606.56635	-492.71170	1511.03015	-540.46088				-480.95935	1380.10583	-613.51831	-811.25934	1390.17200	-610.09845	-654.45837	1268.98706	-544.60089	-659.81494	1380.62012	-725.17621	-372.04169	1030.21277	-653.09558	-912.54816	1066.29065	-683.50330	-342.56442	787.94592	-664.09589	-951.18915	813.64679	-670.27203	-615.78302	948.56909	-506.10217	-749.28418	950.30347	-540.27032	-622.34277	898.49573	-787.18024	-593.54584	427.05023	-461.44727	-819.04224	510.08813	-857.74579	-634.51990	65.76016	-403.20871				
195	1.940	-698.93915	1494.51611	-434.54160	-602.71124	1627.93250	-592.92731	-490.56482	1512.51294	-528.59113				-480.25845	1381.27222	-602.68530	-808.93591	1394.58728	-596.58459	-653.87067	1270.66284	-531.66467	-659.00281	1382.78284	-712.52441	-371.34268	1031.94946	-638.74506	-912.29413	1069.95068	-669.56219	-341.76117	788.78461	-645.41577	-953.19971	817.13873	-658.24463	-617.16760	950.85608	-496.91174	-748.97095	953.28424	-527.93939	-623.15295	900.00421	-774.95514	-590.59082	431.03607	-436.84698	-821.92426	513.65900	-837.80927	-634.80707	63.73986	-397.13278				
196	1.950	-696.58936	1494.70068	-422.36407	-600.68225	1630.81384	-579.03815	-488.53406	1513.97742	-516.80945				-479.35834	1382.82471	-590.93414	-807.30927	1398.01025	-584.34351	-652.10413	1273.89868	-516.76593	-658.10345	1385.50647	-701.29407	-370.93008	1032.66565	-624.06342	-912.57550	1073.90063	-656.58990	-345.25656	787.38458	-643.84412	-955.71991	822.35846	-645.39111	-617.92554	953.77893	-483.83716	-749.72321	956.77606	-516.83911	-623.16534	902.17865	-762.04413	-590.06549	430.62122	-426.32291	-818.83374	513.42407	-814.90753	-636.89343	60.93475	-390.71426				
197	1.960	-694.23260	1496.53552	-410.62430	-598.76355	1633.90771	-565.22211	-486.83508	1516.13293	-506.57419				-478.40515	1384.31360	-579.72864	-806.50970	1399.23840	-573.16345	-652.24323	1276.60059	-506.06598	-657.38281	1387.67969	-689.03625	-369.88580	1034.09424	-609.74872	-912.28540	1077.35266	-643.17548	-342.08337	788.33588	-626.56592	-956.79651	825.72144	-631.93341	-617.05817	957.52423	-470.79822	-749.60052	959.25922	-503.58408	-622.52594	904.81531	-749.79663	-588.61560	430.88251	-418.11880	-818.51263	514.47742	-791.72406	-635.11060	60.92569	-386.73389				
198	1.970	-693.90515	1498.92908	-398.78082	-596.96326	1636.93262	-551.96307	-485.39160	1518.54004	-494.31876				-477.85791	1386.21399	-569.80426	-805.62518	1404.90295	-561.49622	-651.08118	1279.46741	-494.01654	-656.55493	1390.33630	-677.77612	-370.30472	1035.28296	-594.94995	-912.38287	1080.79126	-630.13879	-341.67014	789.41724	-608.63287	-958.87701	830.29889	-618.41144	-617.05945	958.97308	-459.25616	-749.52747	962.39355	-492.44116	-621.54156	907.50708	-738.18585	-586.22406	432.29898	-411.24472	-818.01227	514.29095	-768.22357	-636.48022	62.53389	-381.52939				
199	1.980	-691.08606	1500.89709	-386.89679	-595.27545	1640.06201	-538.54999	-483.79431	1520.80811	-484.01581				-476.26413	1388.31836	-558.41956	-805.62622	1407.16211	-550.97003	-651.18201	1283.09021	-481.24921	-655.78973	1393.16187	-666.77460	-369.60962	1037.32104	-581.43933	-912.68860	1085.10425	-618.13611	-340.13739	792.08997	-592.43085	-960.06970	834.05078	-604.89691	-619.10706	961.82385	-448.93604	-749.85040	965.93011	-481.74838	-619.17523	909.70612	-724.50629	-583.52307	432.33115	-405.77945	-817.10065	513.99414	-744.17230	-623.20984	72.45015	-400.89243				
200	1.990	-688.96881	1502.71350	-374.53601	-593.60168	1643.06628	-526.71796	-482.26297	1523.04211	-471.63190				-475.67108	1390.84277	-548.10925	-804.23920	1411.89063	-538.81824	-650.70789	1287.31567	-469.70850	-655.06799	1395.81995	-655.17987	-368.78714	1038.59338	-566.31055	-913.27155	1089.02747	-606.02032	-339.24191	794.63977	-574.55988	-962.43396	838.79358	-591.75342	-617.24536	965.66113	-433.58829	-749.79138	969.69897	-470.18939	-618.49139	913.29297	-713.28290	-580.16815	432.73068	-401.20804	-816.43634	512.53101	-719.30585	-623.48462	74.05957	-395.12582	-816.08807	201.43497	-947.72430	
